<svg width="80" height="80" viewBox="0 0 80 80" fill="none" xmlns="http://www.w3.org/2000/svg">
<path d="M40.0001 10C59.3334 10 75.0034 22.2133 75.0034 37.2833C75.0034 52.35 59.3334 64.5633 40.0034 64.5633C38.0788 64.5599 36.1562 64.4375 34.2467 64.1967L19.5534 73.8067C17.8834 74.69 17.2934 74.5933 17.9801 72.43L20.9534 60.17C11.3534 55.3033 5.00342 46.87 5.00342 37.2833C5.00342 22.2167 20.6701 10 40.0034 10M59.6968 36.8667L64.5968 32.12C64.8795 31.8264 65.0372 31.4344 65.0367 31.0268C65.0362 30.6192 64.8776 30.2277 64.5941 29.9347C64.3107 29.6417 63.9246 29.4702 63.5172 29.4563C63.1098 29.4424 62.7129 29.5871 62.4101 29.86L55.9834 36.08V30.94C55.9834 30.5227 55.8177 30.1225 55.5226 29.8275C55.2275 29.5324 54.8274 29.3667 54.4101 29.3667C53.9928 29.3667 53.5926 29.5324 53.2976 29.8275C53.0025 30.1225 52.8367 30.5227 52.8367 30.94V39.4633C52.7813 39.7069 52.7813 39.9598 52.8367 40.2033V45C52.8367 45.4173 53.0025 45.8175 53.2976 46.1125C53.5926 46.4076 53.9928 46.5733 54.4101 46.5733C54.8274 46.5733 55.2275 46.4076 55.5226 46.1125C55.8177 45.8175 55.9834 45.4173 55.9834 45V40.4567L57.4067 39.08L62.1668 45.8567C62.2856 46.0259 62.4366 46.17 62.6112 46.2808C62.7857 46.3916 62.9804 46.467 63.184 46.5026C63.3877 46.5382 63.5964 46.5333 63.7982 46.4883C64 46.4432 64.1909 46.3588 64.3601 46.24C64.5293 46.1212 64.6734 45.9701 64.7842 45.7956C64.895 45.6211 64.9704 45.4264 65.006 45.2227C65.0416 45.0191 65.0367 44.8104 64.9917 44.6086C64.9466 44.4068 64.8623 44.2159 64.7434 44.0467L59.6968 36.8667ZM49.8367 43.28H44.9701V30.99C44.9515 30.5857 44.7777 30.2041 44.485 29.9246C44.1923 29.645 43.8032 29.4891 43.3984 29.4891C42.9937 29.4891 42.6045 29.645 42.3118 29.9246C42.0191 30.2041 41.8454 30.5857 41.8268 30.99V44.8533C41.8268 45.72 42.5267 46.4267 43.3967 46.4267H49.8367C50.254 46.4267 50.6542 46.2609 50.9493 45.9659C51.2443 45.6708 51.4101 45.2706 51.4101 44.8533C51.4101 44.4361 51.2443 44.0359 50.9493 43.7408C50.6542 43.4458 50.254 43.28 49.8367 43.28ZM30.3134 39.6433L32.6334 33.95L34.7601 39.64L30.3134 39.6433ZM38.7234 41.2667L38.7301 41.2133C38.729 40.817 38.5777 40.4359 38.3067 40.1467L34.8201 30.8133C34.6739 30.3686 34.3955 29.979 34.022 29.6966C33.6486 29.4143 33.1979 29.2527 32.7301 29.2333C32.2593 29.2331 31.7995 29.3753 31.411 29.6412C31.0225 29.9072 30.7236 30.2844 30.5534 30.7233L25.0134 44.3067C24.8556 44.693 24.8577 45.1262 25.0193 45.511C25.1809 45.8957 25.4888 46.2005 25.8751 46.3583C26.2614 46.5161 26.6946 46.514 27.0794 46.3524C27.4641 46.1908 27.7689 45.883 27.9268 45.4967L29.0334 42.7867H35.9334L36.9267 45.4533C36.9945 45.6527 37.1016 45.8364 37.2416 45.9936C37.3817 46.1507 37.5519 46.2782 37.7421 46.3685C37.9323 46.4587 38.1387 46.5098 38.349 46.5188C38.5594 46.5278 38.7694 46.4946 38.9666 46.4209C39.1638 46.3473 39.3443 46.2348 39.4973 46.0902C39.6503 45.9455 39.7726 45.7717 39.8572 45.5789C39.9418 45.3861 39.9868 45.1783 39.9896 44.9677C39.9923 44.7572 39.9528 44.5483 39.8734 44.3533L38.7234 41.2667ZM27.6467 31.0067C27.6476 30.8001 27.6076 30.5954 27.5291 30.4043C27.4506 30.2132 27.335 30.0396 27.1891 29.8934C27.0432 29.7471 26.8698 29.6312 26.6789 29.5523C26.488 29.4733 26.2833 29.4329 26.0768 29.4333H15.2601C14.8428 29.4333 14.4426 29.5991 14.1476 29.8942C13.8525 30.1892 13.6868 30.5894 13.6868 31.0067C13.6868 31.4239 13.8525 31.8241 14.1476 32.1192C14.4426 32.4142 14.8428 32.58 15.2601 32.58H19.1268V45.0333C19.1268 45.4506 19.2925 45.8508 19.5876 46.1459C19.8826 46.4409 20.2828 46.6067 20.7001 46.6067C21.1174 46.6067 21.5175 46.4409 21.8126 46.1459C22.1077 45.8508 22.2734 45.4506 22.2734 45.0333V32.58H26.0734C26.2803 32.5809 26.4853 32.5408 26.6765 32.462C26.8678 32.3833 27.0416 32.2674 27.1879 32.1212C27.3342 31.9749 27.45 31.8011 27.5288 31.6098C27.6075 31.4185 27.6476 31.2135 27.6467 31.0067Z" fill="black"/>
</svg>
